<mxfile host="app.diagrams.net" agent="Mozilla/5.0 (Windows NT 10.0; Win64; x64) AppleWebKit/537.36 (KHTML, like Gecko) Chrome/141.0.0.0 Safari/537.36 Edg/141.0.0.0" version="28.2.7">
  <diagram name="Page-1" id="2YBvvXClWsGukQMizWep">
    <mxGraphModel grid="1" page="1" gridSize="10" guides="1" tooltips="1" connect="1" arrows="1" fold="1" pageScale="1" pageWidth="850" pageHeight="1100" math="0" shadow="0">
      <root>
        <mxCell id="0" />
        <mxCell id="1" parent="0" />
        <mxCell id="aM9ryv3xv72pqoxQDRHE-1" value=":GUI" style="shape=umlLifeline;perimeter=lifelinePerimeter;whiteSpace=wrap;html=1;container=0;dropTarget=0;collapsible=0;recursiveResize=0;outlineConnect=0;portConstraint=eastwest;newEdgeStyle={&quot;edgeStyle&quot;:&quot;elbowEdgeStyle&quot;,&quot;elbow&quot;:&quot;vertical&quot;,&quot;curved&quot;:0,&quot;rounded&quot;:0};" vertex="1" parent="1">
          <mxGeometry x="60" y="40" width="100" height="1020" as="geometry" />
        </mxCell>
        <mxCell id="aM9ryv3xv72pqoxQDRHE-2" value="" style="html=1;points=[];perimeter=orthogonalPerimeter;outlineConnect=0;targetShapes=umlLifeline;portConstraint=eastwest;newEdgeStyle={&quot;edgeStyle&quot;:&quot;elbowEdgeStyle&quot;,&quot;elbow&quot;:&quot;vertical&quot;,&quot;curved&quot;:0,&quot;rounded&quot;:0};" vertex="1" parent="aM9ryv3xv72pqoxQDRHE-1">
          <mxGeometry x="45" y="70" width="10" height="890" as="geometry" />
        </mxCell>
        <mxCell id="aM9ryv3xv72pqoxQDRHE-5" value=":ControllerClass" style="shape=umlLifeline;perimeter=lifelinePerimeter;whiteSpace=wrap;html=1;container=0;dropTarget=0;collapsible=0;recursiveResize=0;outlineConnect=0;portConstraint=eastwest;newEdgeStyle={&quot;edgeStyle&quot;:&quot;elbowEdgeStyle&quot;,&quot;elbow&quot;:&quot;vertical&quot;,&quot;curved&quot;:0,&quot;rounded&quot;:0};" vertex="1" parent="1">
          <mxGeometry x="220" y="40" width="100" height="1020" as="geometry" />
        </mxCell>
        <mxCell id="aM9ryv3xv72pqoxQDRHE-6" value="" style="html=1;points=[];perimeter=orthogonalPerimeter;outlineConnect=0;targetShapes=umlLifeline;portConstraint=eastwest;newEdgeStyle={&quot;edgeStyle&quot;:&quot;elbowEdgeStyle&quot;,&quot;elbow&quot;:&quot;vertical&quot;,&quot;curved&quot;:0,&quot;rounded&quot;:0};" vertex="1" parent="aM9ryv3xv72pqoxQDRHE-5">
          <mxGeometry x="45" y="80" width="10" height="880" as="geometry" />
        </mxCell>
        <mxCell id="aM9ryv3xv72pqoxQDRHE-7" value="GetReportOptions()" style="html=1;verticalAlign=bottom;endArrow=block;edgeStyle=elbowEdgeStyle;elbow=horizontal;curved=0;rounded=0;" edge="1" parent="1" source="aM9ryv3xv72pqoxQDRHE-2" target="aM9ryv3xv72pqoxQDRHE-6">
          <mxGeometry relative="1" as="geometry">
            <mxPoint x="195" y="130" as="sourcePoint" />
            <Array as="points">
              <mxPoint x="180" y="120" />
            </Array>
          </mxGeometry>
        </mxCell>
        <mxCell id="aM9ryv3xv72pqoxQDRHE-8" value="Display List of options" style="html=1;verticalAlign=bottom;endArrow=open;dashed=1;endSize=8;edgeStyle=elbowEdgeStyle;elbow=vertical;curved=0;rounded=0;" edge="1" parent="1">
          <mxGeometry relative="1" as="geometry">
            <mxPoint x="120" y="150" as="targetPoint" />
            <Array as="points">
              <mxPoint x="190" y="150" />
            </Array>
            <mxPoint x="265" y="150" as="sourcePoint" />
            <mxPoint as="offset" />
          </mxGeometry>
        </mxCell>
        <mxCell id="MtucEvK7TMKTo4AZey4x-1" value="GenerateReport(type,filter)" style="html=1;verticalAlign=bottom;endArrow=block;edgeStyle=elbowEdgeStyle;elbow=horizontal;curved=0;rounded=0;" edge="1" parent="1">
          <mxGeometry relative="1" as="geometry">
            <mxPoint x="120" y="190" as="sourcePoint" />
            <Array as="points">
              <mxPoint x="180" y="189.5" />
            </Array>
            <mxPoint x="265" y="189.5" as="targetPoint" />
          </mxGeometry>
        </mxCell>
        <mxCell id="MtucEvK7TMKTo4AZey4x-2" value=":BookingCatalogue" style="shape=umlLifeline;perimeter=lifelinePerimeter;whiteSpace=wrap;html=1;container=0;dropTarget=0;collapsible=0;recursiveResize=0;outlineConnect=0;portConstraint=eastwest;newEdgeStyle={&quot;edgeStyle&quot;:&quot;elbowEdgeStyle&quot;,&quot;elbow&quot;:&quot;vertical&quot;,&quot;curved&quot;:0,&quot;rounded&quot;:0};" vertex="1" parent="1">
          <mxGeometry x="380" y="40" width="100" height="1020" as="geometry" />
        </mxCell>
        <mxCell id="MtucEvK7TMKTo4AZey4x-3" value="" style="html=1;points=[];perimeter=orthogonalPerimeter;outlineConnect=0;targetShapes=umlLifeline;portConstraint=eastwest;newEdgeStyle={&quot;edgeStyle&quot;:&quot;elbowEdgeStyle&quot;,&quot;elbow&quot;:&quot;vertical&quot;,&quot;curved&quot;:0,&quot;rounded&quot;:0};" vertex="1" parent="MtucEvK7TMKTo4AZey4x-2">
          <mxGeometry x="45" y="170" width="10" height="120" as="geometry" />
        </mxCell>
        <mxCell id="MtucEvK7TMKTo4AZey4x-4" value=":Booking" style="shape=umlLifeline;perimeter=lifelinePerimeter;whiteSpace=wrap;html=1;container=0;dropTarget=0;collapsible=0;recursiveResize=0;outlineConnect=0;portConstraint=eastwest;newEdgeStyle={&quot;edgeStyle&quot;:&quot;elbowEdgeStyle&quot;,&quot;elbow&quot;:&quot;vertical&quot;,&quot;curved&quot;:0,&quot;rounded&quot;:0};" vertex="1" parent="1">
          <mxGeometry x="540" y="40" width="100" height="1020" as="geometry" />
        </mxCell>
        <mxCell id="MtucEvK7TMKTo4AZey4x-5" value="" style="html=1;points=[];perimeter=orthogonalPerimeter;outlineConnect=0;targetShapes=umlLifeline;portConstraint=eastwest;newEdgeStyle={&quot;edgeStyle&quot;:&quot;elbowEdgeStyle&quot;,&quot;elbow&quot;:&quot;vertical&quot;,&quot;curved&quot;:0,&quot;rounded&quot;:0};" vertex="1" parent="MtucEvK7TMKTo4AZey4x-4">
          <mxGeometry x="45" y="210" width="10" height="40" as="geometry" />
        </mxCell>
        <mxCell id="MtucEvK7TMKTo4AZey4x-6" value="GetBookingData(filter)" style="html=1;verticalAlign=bottom;endArrow=block;edgeStyle=elbowEdgeStyle;elbow=horizontal;curved=0;rounded=0;" edge="1" parent="1">
          <mxGeometry relative="1" as="geometry">
            <mxPoint x="275" y="210" as="sourcePoint" />
            <Array as="points">
              <mxPoint x="340" y="210" />
            </Array>
            <mxPoint x="425" y="210" as="targetPoint" />
          </mxGeometry>
        </mxCell>
        <mxCell id="MtucEvK7TMKTo4AZey4x-7" value="MatchCriteria(filter)" style="html=1;verticalAlign=bottom;endArrow=block;edgeStyle=elbowEdgeStyle;elbow=horizontal;curved=0;rounded=0;" edge="1" parent="1">
          <mxGeometry relative="1" as="geometry">
            <mxPoint x="436" y="252" as="sourcePoint" />
            <Array as="points">
              <mxPoint x="501" y="252" />
            </Array>
            <mxPoint x="586" y="252" as="targetPoint" />
          </mxGeometry>
        </mxCell>
        <mxCell id="MtucEvK7TMKTo4AZey4x-9" value="Return status" style="html=1;verticalAlign=bottom;endArrow=open;dashed=1;endSize=8;edgeStyle=elbowEdgeStyle;elbow=vertical;curved=0;rounded=0;" edge="1" parent="1">
          <mxGeometry relative="1" as="geometry">
            <mxPoint x="437" y="277" as="targetPoint" />
            <Array as="points">
              <mxPoint x="507" y="277" />
            </Array>
            <mxPoint x="582" y="277" as="sourcePoint" />
            <mxPoint as="offset" />
          </mxGeometry>
        </mxCell>
        <mxCell id="MtucEvK7TMKTo4AZey4x-10" value="Return BookingData" style="html=1;verticalAlign=bottom;endArrow=open;dashed=1;endSize=8;edgeStyle=elbowEdgeStyle;elbow=vertical;curved=0;rounded=0;" edge="1" parent="1">
          <mxGeometry relative="1" as="geometry">
            <mxPoint x="280" y="322" as="targetPoint" />
            <Array as="points">
              <mxPoint x="350" y="322" />
            </Array>
            <mxPoint x="425" y="322" as="sourcePoint" />
            <mxPoint as="offset" />
          </mxGeometry>
        </mxCell>
        <mxCell id="MtucEvK7TMKTo4AZey4x-11" value="for each booking" style="shape=umlFrame;whiteSpace=wrap;html=1;pointerEvents=0;" vertex="1" parent="1">
          <mxGeometry x="370" y="220" width="280" height="80" as="geometry" />
        </mxCell>
        <mxCell id="MtucEvK7TMKTo4AZey4x-12" value=":Report" style="shape=umlLifeline;perimeter=lifelinePerimeter;whiteSpace=wrap;html=1;container=0;dropTarget=0;collapsible=0;recursiveResize=0;outlineConnect=0;portConstraint=eastwest;newEdgeStyle={&quot;edgeStyle&quot;:&quot;elbowEdgeStyle&quot;,&quot;elbow&quot;:&quot;vertical&quot;,&quot;curved&quot;:0,&quot;rounded&quot;:0};" vertex="1" parent="1">
          <mxGeometry x="860" y="40" width="100" height="1020" as="geometry" />
        </mxCell>
        <mxCell id="MtucEvK7TMKTo4AZey4x-13" value="" style="html=1;points=[];perimeter=orthogonalPerimeter;outlineConnect=0;targetShapes=umlLifeline;portConstraint=eastwest;newEdgeStyle={&quot;edgeStyle&quot;:&quot;elbowEdgeStyle&quot;,&quot;elbow&quot;:&quot;vertical&quot;,&quot;curved&quot;:0,&quot;rounded&quot;:0};" vertex="1" parent="MtucEvK7TMKTo4AZey4x-12">
          <mxGeometry x="45" y="360" width="10" height="450" as="geometry" />
        </mxCell>
        <mxCell id="MtucEvK7TMKTo4AZey4x-14" value="Report(type, BookingData)" style="html=1;verticalAlign=bottom;endArrow=block;edgeStyle=elbowEdgeStyle;elbow=horizontal;curved=0;rounded=0;" edge="1" parent="1">
          <mxGeometry relative="1" as="geometry">
            <mxPoint x="275" y="578" as="sourcePoint" />
            <Array as="points">
              <mxPoint x="340" y="578" />
            </Array>
            <mxPoint x="909.5" y="578" as="targetPoint" />
          </mxGeometry>
        </mxCell>
        <mxCell id="MtucEvK7TMKTo4AZey4x-15" value="Return ReportObject" style="html=1;verticalAlign=bottom;endArrow=open;dashed=1;endSize=8;edgeStyle=elbowEdgeStyle;elbow=vertical;curved=0;rounded=0;" edge="1" parent="1">
          <mxGeometry relative="1" as="geometry">
            <mxPoint x="280" y="606" as="targetPoint" />
            <Array as="points">
              <mxPoint x="670" y="606" />
            </Array>
            <mxPoint x="909.5" y="606" as="sourcePoint" />
            <mxPoint as="offset" />
          </mxGeometry>
        </mxCell>
        <mxCell id="MtucEvK7TMKTo4AZey4x-16" value=":ReportCatalog" style="shape=umlLifeline;perimeter=lifelinePerimeter;whiteSpace=wrap;html=1;container=0;dropTarget=0;collapsible=0;recursiveResize=0;outlineConnect=0;portConstraint=eastwest;newEdgeStyle={&quot;edgeStyle&quot;:&quot;elbowEdgeStyle&quot;,&quot;elbow&quot;:&quot;vertical&quot;,&quot;curved&quot;:0,&quot;rounded&quot;:0};" vertex="1" parent="1">
          <mxGeometry x="700" y="40" width="100" height="1020" as="geometry" />
        </mxCell>
        <mxCell id="MtucEvK7TMKTo4AZey4x-17" value="" style="html=1;points=[];perimeter=orthogonalPerimeter;outlineConnect=0;targetShapes=umlLifeline;portConstraint=eastwest;newEdgeStyle={&quot;edgeStyle&quot;:&quot;elbowEdgeStyle&quot;,&quot;elbow&quot;:&quot;vertical&quot;,&quot;curved&quot;:0,&quot;rounded&quot;:0};" vertex="1" parent="MtucEvK7TMKTo4AZey4x-16">
          <mxGeometry x="45" y="320" width="10" height="520" as="geometry" />
        </mxCell>
        <mxCell id="MtucEvK7TMKTo4AZey4x-18" value="AddToCatalog(ReportObject)" style="html=1;verticalAlign=bottom;endArrow=block;edgeStyle=elbowEdgeStyle;elbow=horizontal;curved=0;rounded=0;" edge="1" parent="1">
          <mxGeometry relative="1" as="geometry">
            <mxPoint x="275" y="646" as="sourcePoint" />
            <Array as="points">
              <mxPoint x="385" y="646" />
            </Array>
            <mxPoint x="749.5" y="646" as="targetPoint" />
          </mxGeometry>
        </mxCell>
        <mxCell id="MtucEvK7TMKTo4AZey4x-30" style="edgeStyle=orthogonalEdgeStyle;rounded=0;orthogonalLoop=1;jettySize=auto;html=1;" edge="1" parent="1" target="aM9ryv3xv72pqoxQDRHE-1">
          <mxGeometry relative="1" as="geometry">
            <mxPoint x="20" y="730" as="targetPoint" />
            <mxPoint x="-110" y="110" as="sourcePoint" />
            <Array as="points">
              <mxPoint x="-40" y="110" />
              <mxPoint x="-40" y="730" />
            </Array>
          </mxGeometry>
        </mxCell>
        <mxCell id="MtucEvK7TMKTo4AZey4x-19" value="Admin" style="shape=umlActor;verticalLabelPosition=bottom;verticalAlign=top;html=1;" vertex="1" parent="1">
          <mxGeometry x="-120" y="80" width="30" height="60" as="geometry" />
        </mxCell>
        <mxCell id="aM9ryv3xv72pqoxQDRHE-3" value="Admin generates reports" style="html=1;verticalAlign=bottom;startArrow=oval;endArrow=block;startSize=8;edgeStyle=elbowEdgeStyle;elbow=vertical;curved=0;rounded=0;exitX=0.5;exitY=0.5;exitDx=0;exitDy=0;exitPerimeter=0;" edge="1" parent="1" target="aM9ryv3xv72pqoxQDRHE-2" source="MtucEvK7TMKTo4AZey4x-19">
          <mxGeometry relative="1" as="geometry">
            <mxPoint x="45" y="110" as="sourcePoint" />
          </mxGeometry>
        </mxCell>
        <mxCell id="MtucEvK7TMKTo4AZey4x-21" value="CheckReportExists(type,BookingData)" style="html=1;verticalAlign=bottom;endArrow=block;edgeStyle=elbowEdgeStyle;elbow=horizontal;curved=0;rounded=0;" edge="1" parent="1" target="MtucEvK7TMKTo4AZey4x-16">
          <mxGeometry relative="1" as="geometry">
            <mxPoint x="275" y="360" as="sourcePoint" />
            <Array as="points">
              <mxPoint x="340" y="360" />
            </Array>
            <mxPoint x="425" y="360" as="targetPoint" />
          </mxGeometry>
        </mxCell>
        <mxCell id="MtucEvK7TMKTo4AZey4x-22" value="for each report" style="shape=umlFrame;whiteSpace=wrap;html=1;pointerEvents=0;" vertex="1" parent="1">
          <mxGeometry x="680" y="380" width="280" height="80" as="geometry" />
        </mxCell>
        <mxCell id="MtucEvK7TMKTo4AZey4x-23" value="MatchData(type,BookingData)" style="html=1;verticalAlign=bottom;endArrow=block;edgeStyle=elbowEdgeStyle;elbow=horizontal;curved=0;rounded=0;" edge="1" parent="1">
          <mxGeometry relative="1" as="geometry">
            <mxPoint x="755" y="410" as="sourcePoint" />
            <Array as="points">
              <mxPoint x="820" y="410" />
            </Array>
            <mxPoint x="905" y="410" as="targetPoint" />
          </mxGeometry>
        </mxCell>
        <mxCell id="MtucEvK7TMKTo4AZey4x-24" value="Return status" style="html=1;verticalAlign=bottom;endArrow=open;dashed=1;endSize=8;edgeStyle=elbowEdgeStyle;elbow=vertical;curved=0;rounded=0;" edge="1" parent="1">
          <mxGeometry relative="1" as="geometry">
            <mxPoint x="760" y="440" as="targetPoint" />
            <Array as="points">
              <mxPoint x="830" y="440" />
            </Array>
            <mxPoint x="905" y="440" as="sourcePoint" />
            <mxPoint as="offset" />
          </mxGeometry>
        </mxCell>
        <mxCell id="MtucEvK7TMKTo4AZey4x-25" value="Return Exists" style="html=1;verticalAlign=bottom;endArrow=open;dashed=1;endSize=8;edgeStyle=elbowEdgeStyle;elbow=vertical;curved=0;rounded=0;" edge="1" parent="1" source="MtucEvK7TMKTo4AZey4x-17" target="aM9ryv3xv72pqoxQDRHE-5">
          <mxGeometry relative="1" as="geometry">
            <mxPoint x="395" y="480" as="targetPoint" />
            <Array as="points">
              <mxPoint x="465" y="480" />
            </Array>
            <mxPoint x="540" y="480" as="sourcePoint" />
            <mxPoint as="offset" />
          </mxGeometry>
        </mxCell>
        <mxCell id="MtucEvK7TMKTo4AZey4x-26" value="if&amp;nbsp; Exists" style="shape=umlFrame;whiteSpace=wrap;html=1;pointerEvents=0;" vertex="1" parent="1">
          <mxGeometry x="200" y="490" width="790" height="60" as="geometry" />
        </mxCell>
        <mxCell id="MtucEvK7TMKTo4AZey4x-27" value="else" style="shape=umlFrame;whiteSpace=wrap;html=1;pointerEvents=0;" vertex="1" parent="1">
          <mxGeometry x="200" y="550" width="790" height="140" as="geometry" />
        </mxCell>
        <mxCell id="MtucEvK7TMKTo4AZey4x-28" value="Display AlreadyGenerated" style="html=1;verticalAlign=bottom;endArrow=open;dashed=1;endSize=8;edgeStyle=elbowEdgeStyle;elbow=vertical;curved=0;rounded=0;" edge="1" parent="1">
          <mxGeometry relative="1" as="geometry">
            <mxPoint x="120" y="537" as="targetPoint" />
            <Array as="points">
              <mxPoint x="190" y="537" />
            </Array>
            <mxPoint x="265" y="537" as="sourcePoint" />
            <mxPoint as="offset" />
          </mxGeometry>
        </mxCell>
        <mxCell id="MtucEvK7TMKTo4AZey4x-29" value="Display Succesfully Generated" style="html=1;verticalAlign=bottom;endArrow=open;dashed=1;endSize=8;edgeStyle=elbowEdgeStyle;elbow=vertical;curved=0;rounded=0;" edge="1" parent="1">
          <mxGeometry relative="1" as="geometry">
            <mxPoint x="117" y="670" as="targetPoint" />
            <Array as="points">
              <mxPoint x="187" y="670" />
            </Array>
            <mxPoint x="262" y="670" as="sourcePoint" />
            <mxPoint as="offset" />
          </mxGeometry>
        </mxCell>
        <mxCell id="MtucEvK7TMKTo4AZey4x-32" value="Admin Views Reports" style="text;html=1;whiteSpace=wrap;strokeColor=none;fillColor=none;align=center;verticalAlign=middle;rounded=0;" vertex="1" parent="1">
          <mxGeometry x="-20" y="700" width="100" height="30" as="geometry" />
        </mxCell>
        <mxCell id="MtucEvK7TMKTo4AZey4x-33" value="GetReports(filter)" style="html=1;verticalAlign=bottom;endArrow=block;edgeStyle=elbowEdgeStyle;elbow=horizontal;curved=0;rounded=0;" edge="1" parent="1">
          <mxGeometry relative="1" as="geometry">
            <mxPoint x="115" y="754.5" as="sourcePoint" />
            <Array as="points">
              <mxPoint x="180" y="754.5" />
            </Array>
            <mxPoint x="265" y="754.5" as="targetPoint" />
          </mxGeometry>
        </mxCell>
        <mxCell id="MtucEvK7TMKTo4AZey4x-34" value="SearchReport(filter)" style="html=1;verticalAlign=bottom;endArrow=block;edgeStyle=elbowEdgeStyle;elbow=horizontal;curved=0;rounded=0;" edge="1" parent="1">
          <mxGeometry relative="1" as="geometry">
            <mxPoint x="276" y="770" as="sourcePoint" />
            <Array as="points">
              <mxPoint x="341" y="770" />
            </Array>
            <mxPoint x="745.5" y="770" as="targetPoint" />
          </mxGeometry>
        </mxCell>
        <mxCell id="MtucEvK7TMKTo4AZey4x-35" value="for each report" style="shape=umlFrame;whiteSpace=wrap;html=1;pointerEvents=0;" vertex="1" parent="1">
          <mxGeometry x="680" y="780" width="280" height="80" as="geometry" />
        </mxCell>
        <mxCell id="MtucEvK7TMKTo4AZey4x-36" value="MatchFilter(filter)" style="html=1;verticalAlign=bottom;endArrow=block;edgeStyle=elbowEdgeStyle;elbow=vertical;curved=0;rounded=0;" edge="1" parent="1">
          <mxGeometry relative="1" as="geometry">
            <mxPoint x="755" y="810" as="sourcePoint" />
            <Array as="points">
              <mxPoint x="820" y="810" />
            </Array>
            <mxPoint x="905" y="810" as="targetPoint" />
          </mxGeometry>
        </mxCell>
        <mxCell id="MtucEvK7TMKTo4AZey4x-37" value="Return status" style="html=1;verticalAlign=bottom;endArrow=open;dashed=1;endSize=8;edgeStyle=elbowEdgeStyle;elbow=vertical;curved=0;rounded=0;" edge="1" parent="1">
          <mxGeometry relative="1" as="geometry">
            <mxPoint x="760" y="840" as="targetPoint" />
            <Array as="points">
              <mxPoint x="830" y="840" />
            </Array>
            <mxPoint x="905" y="840" as="sourcePoint" />
            <mxPoint as="offset" />
          </mxGeometry>
        </mxCell>
        <mxCell id="MtucEvK7TMKTo4AZey4x-41" value="Return list" style="html=1;verticalAlign=bottom;endArrow=open;dashed=1;endSize=8;edgeStyle=elbowEdgeStyle;elbow=vertical;curved=0;rounded=0;" edge="1" parent="1">
          <mxGeometry relative="1" as="geometry">
            <mxPoint x="270" y="880" as="targetPoint" />
            <Array as="points">
              <mxPoint x="465" y="880" />
            </Array>
            <mxPoint x="745" y="880" as="sourcePoint" />
            <mxPoint as="offset" />
          </mxGeometry>
        </mxCell>
        <mxCell id="MtucEvK7TMKTo4AZey4x-42" value="if&amp;nbsp; list is empty" style="shape=umlFrame;whiteSpace=wrap;html=1;pointerEvents=0;" vertex="1" parent="1">
          <mxGeometry x="200" y="890" width="790" height="60" as="geometry" />
        </mxCell>
        <mxCell id="MtucEvK7TMKTo4AZey4x-43" value="else" style="shape=umlFrame;whiteSpace=wrap;html=1;pointerEvents=0;" vertex="1" parent="1">
          <mxGeometry x="200" y="950" width="790" height="60" as="geometry" />
        </mxCell>
        <mxCell id="MtucEvK7TMKTo4AZey4x-44" value="Display No Data Exists" style="html=1;verticalAlign=bottom;endArrow=open;dashed=1;endSize=8;edgeStyle=elbowEdgeStyle;elbow=vertical;curved=0;rounded=0;" edge="1" parent="1">
          <mxGeometry relative="1" as="geometry">
            <mxPoint x="120" y="940" as="targetPoint" />
            <Array as="points">
              <mxPoint x="190" y="940" />
            </Array>
            <mxPoint x="265" y="940" as="sourcePoint" />
            <mxPoint as="offset" />
          </mxGeometry>
        </mxCell>
        <mxCell id="MtucEvK7TMKTo4AZey4x-45" value="Display Succesfully Generated" style="html=1;verticalAlign=bottom;endArrow=open;dashed=1;endSize=8;edgeStyle=elbowEdgeStyle;elbow=vertical;curved=0;rounded=0;" edge="1" parent="1">
          <mxGeometry x="0.0345" relative="1" as="geometry">
            <mxPoint x="120" y="1000" as="targetPoint" />
            <Array as="points" />
            <mxPoint x="265" y="1000" as="sourcePoint" />
            <mxPoint as="offset" />
          </mxGeometry>
        </mxCell>
      </root>
    </mxGraphModel>
  </diagram>
</mxfile>
